<svg version="1.1" xmlns="http://www.w3.org/2000/svg" x="0px" y="0px"
     width="55px" height="49.107px" viewBox="0 0 55 49.107" enable-background="new 0 0 55 49.107" xml:space="preserve">
<g>
	<path fill="#fff" d="M20.441,13.781c-1.228,1.882-2.629,4.675-4.205,8.379c-0.45-0.921-0.829-1.663-1.135-2.225
		c-0.307-0.563-0.721-1.212-1.243-1.949c-0.521-0.737-1.043-1.315-1.565-1.734c-0.521-0.419-1.166-0.777-1.934-1.074
		c-0.767-0.297-1.601-0.445-2.501-0.445H0.982c-0.286,0-0.521-0.092-0.706-0.276S0,14.037,0,13.75V7.857
		c0-0.287,0.092-0.522,0.276-0.706s0.419-0.276,0.706-0.276h6.875C12.973,6.875,17.167,9.177,20.441,13.781z M55,38.304
		c0,0.286-0.092,0.521-0.276,0.706l-9.821,9.821c-0.185,0.185-0.42,0.276-0.706,0.276c-0.266,0-0.496-0.098-0.69-0.292
		s-0.292-0.424-0.292-0.69v-5.893c-0.654,0-1.524,0.005-2.608,0.016c-1.084,0.01-1.913,0.021-2.486,0.03
		c-0.572,0.01-1.319,0-2.24-0.03c-0.921-0.031-1.647-0.082-2.179-0.154c-0.532-0.071-1.188-0.179-1.965-0.322
		c-0.777-0.143-1.422-0.332-1.934-0.567s-1.104-0.527-1.78-0.875s-1.279-0.757-1.811-1.228c-0.532-0.471-1.095-1.018-1.688-1.642
		s-1.167-1.335-1.719-2.134c1.207-1.902,2.599-4.695,4.174-8.379c0.45,0.921,0.829,1.663,1.136,2.226
		c0.307,0.563,0.721,1.212,1.243,1.949c0.522,0.736,1.044,1.314,1.565,1.733c0.522,0.42,1.167,0.778,1.934,1.074
		c0.768,0.297,1.602,0.445,2.502,0.445h7.856v-5.893c0-0.286,0.093-0.521,0.276-0.706c0.185-0.185,0.42-0.276,0.706-0.276
		c0.246,0,0.491,0.103,0.736,0.307l9.791,9.791C54.908,37.782,55,38.018,55,38.304z M55,10.804c0,0.287-0.092,0.522-0.276,0.706
		l-9.821,9.821c-0.185,0.184-0.42,0.276-0.706,0.276c-0.266,0-0.496-0.097-0.69-0.292c-0.194-0.195-0.292-0.425-0.292-0.691v-5.893
		h-7.856c-0.982,0-1.872,0.153-2.671,0.46c-0.798,0.307-1.504,0.767-2.117,1.381c-0.614,0.614-1.136,1.243-1.565,1.888
		s-0.89,1.438-1.381,2.378c-0.655,1.269-1.453,3.018-2.394,5.248c-0.594,1.351-1.1,2.486-1.52,3.407s-0.972,1.995-1.657,3.223
		s-1.34,2.251-1.964,3.069s-1.381,1.667-2.271,2.547s-1.811,1.581-2.763,2.103c-0.951,0.522-2.041,0.952-3.269,1.289
		c-1.228,0.338-2.537,0.507-3.929,0.507H0.982c-0.286,0-0.521-0.092-0.706-0.276S0,41.536,0,41.25v-5.893
		c0-0.286,0.092-0.521,0.276-0.706s0.419-0.276,0.706-0.276h6.875c0.982,0,1.873-0.153,2.67-0.46
		c0.798-0.308,1.504-0.768,2.118-1.382c0.614-0.613,1.136-1.242,1.565-1.887s0.89-1.438,1.381-2.379
		c0.655-1.269,1.453-3.018,2.394-5.249c0.594-1.35,1.1-2.486,1.52-3.407s0.972-1.995,1.657-3.223s1.34-2.251,1.964-3.069
		s1.381-1.667,2.271-2.547s1.811-1.581,2.762-2.103c0.952-0.521,2.042-0.951,3.269-1.289c1.228-0.337,2.537-0.506,3.929-0.506h7.856
		V0.982c0-0.287,0.093-0.522,0.276-0.706C43.675,0.092,43.91,0,44.196,0c0.246,0,0.491,0.103,0.736,0.307l9.791,9.791
		C54.908,10.282,55,10.517,55,10.804z"/>
</g>
</svg>
