<svg version="1.1" xmlns="http://www.w3.org/2000/svg" x="0px" y="0px"
     width="34px" height="33.162px" viewBox="0 0 34 33.162" enable-background="new 0 0 34 33.162"
     xml:space="preserve">
				<path fill="#181616" d="M17,0.58c-8.836,0-16,7.164-16,16c0,8.837,7.164,16,16,16c8.836,0,16-7.163,16-16
	C33,7.744,25.836,0.58,17,0.58z M18.1,25.411c0,0.822-0.617,1.438-1.438,1.438c-0.763,0-1.438-0.615-1.438-1.438v-0.527
	c0-0.793,0.675-1.438,1.438-1.438c0.821,0,1.438,0.645,1.438,1.438V25.411z M18.1,18.458v1.906c0,0.822-0.617,1.438-1.438,1.438
	c-0.763,0-1.438-0.615-1.438-1.438v-3.051c0-0.029,0.029-0.029,0.029-0.06c-0.029-0.028-0.029-0.028-0.029-0.06
	c0-0.763,0.675-1.438,1.438-1.438c1.849,0,3.345-1.467,3.345-3.286c0-1.849-1.496-3.286-3.345-3.286
	c-1.203,0-2.259,0.646-2.817,1.614c-0.411,0.704-1.291,0.938-1.996,0.527c-0.675-0.41-0.91-1.262-0.499-1.966
	c1.056-1.819,3.052-3.052,5.311-3.052c3.402,0,6.191,2.759,6.191,6.162C22.854,15.377,20.828,17.813,18.1,18.458z"/>
			</svg>