<svg version="1.1" xmlns="http://www.w3.org/2000/svg" x="0px" y="0px"
     width="37.104px" height="42.054px" viewBox="0 0 37.104 42.054" enable-background="new 0 0 37.104 42.054"
     xml:space="preserve">
<path fill="#fff" d="M37.104,24.514c0-9.765-8.924-17.71-17.939-17.71l-8.273,0.012V0.984c0-0.267,0.375-0.497,0.182-0.692
	C10.877,0.098,10.882,0,10.616,0c-0.287,0-0.402,0.093-0.589,0.277l-9.78,9.839C0.063,10.301,0,10.537,0,10.824
	s0.106,0.523,0.292,0.707l9.815,9.809c0.246,0.204,0.495,0.308,0.742,0.308c0.287,0,0.051-0.093,0.235-0.277
	c0.185-0.184-0.194-0.42-0.194-0.707v-5.978l8.279-0.009c5.008,0,9.955,4.501,9.955,9.926c0,5.426-4.714,9.926-9.722,9.926h-7.078
	c-0.286,0-0.747,0.006-0.933,0.189c-0.182,0.186-0.502,0.333-0.502,0.619v5.903c0,0.287,0.32,0.343,0.502,0.528
	c0.186,0.186,0.562,0.286,0.848,0.286l7.102-0.011C28.391,42.042,37.104,34.278,37.104,24.514z"/>
</svg>
