<svg version="1.1" xmlns="http://www.w3.org/2000/svg" x="0px" y="0px"
     width="31.104px" height="47.656px" viewBox="0 0 31.104 47.656" enable-background="new 0 0 31.104 47.656"
     xml:space="preserve">
<g>
	<path fill="#fff" d="M17.4,38.656h-3.627c-0.723,0-1.648,0.002-2.17,0.523c-0.52,0.52-1.063,0.904-1.063,1.627v3.627
		c0,0.724,0.543,1.645,1.063,2.161c0.52,0.522,1.446,1.062,2.17,1.062H17.4c0.722,0,1.602-0.539,2.123-1.061
		c0.52-0.52,1.018-1.441,1.018-2.162v-3.627c0-0.722-0.498-1.105-1.02-1.629C18.998,38.658,18.122,38.656,17.4,38.656z"/>
    <path fill="#fff" d="M29.922,7.804c-0.78-1.606-1.884-3.001-3.281-4.147c-1.378-1.127-3.02-2.029-4.878-2.679
		C19.904,0.329,17.859,0,15.682,0c-2.537,0-4.805,0.411-6.739,1.221C7.009,2.03,5.373,3.096,4.079,4.39
		C2.786,5.683,1.795,7.137,1.134,8.71c-0.655,1.558-1.034,3.111-1.12,4.564c-0.076,0.686,0.167,1.276,0.687,1.758
		c0.476,0.442,1.058,0.623,1.686,0.623h2.735c0.538,0,1.067-0.122,1.571-0.469c0.551-0.377,0.912-0.931,1.033-1.6
		c0.534-2.21,1.495-3.802,2.857-4.759c1.394-0.98,3.108-1.47,5.099-1.47c1.004,0,1.996,0.141,2.943,0.411
		c0.934,0.267,1.769,0.652,2.484,1.14c0.685,0.469,1.239,1.062,1.651,1.759c0.401,0.682,0.597,1.445,0.597,2.335
		c0,1.132-0.244,2.122-0.726,2.94c-0.526,0.897-1.202,1.763-2.011,2.571c-0.843,0.842-1.761,1.677-2.732,2.484
		c-1.031,0.854-2.009,1.799-2.904,2.806c-0.931,1.043-2.299,2.249-2.91,3.584c-0.627,1.375-1.533,3-1.533,4.828v1.336
		c0,0.726,0.861,1.584,1.381,2.102c0.52,0.521,1.764,1.002,2.487,1.002h2.354c0.722,0,1.419-0.48,1.941-1
		c0.52-0.521,0.836-1.38,0.836-2.104v-0.89c0-1.269,0.208-2.362,0.695-3.25c0.527-0.955,1.181-1.845,1.98-2.645
		c0.846-0.847,1.755-1.682,2.721-2.483c1.032-0.857,2.004-1.801,2.9-2.806c0.932-1.047,1.711-2.253,2.319-3.583
		c0.629-1.373,0.947-3.019,0.947-4.893C31.104,11.167,30.706,9.417,29.922,7.804z"/>
</g>
</svg>
